<svg xmlns="http://www.w3.org/2000/svg" viewBox="0 0 1600 900" role="img" aria-labelledby="title desc">
  <title id="title">mdpresent cover slide preview</title>
  <desc id="desc">A generated cover slide preview for MDPR.</desc>
  <rect width="1600" height="900" fill="#F7F2EA"/>

  <text x="96" y="170" font-family="Aptos, Arial" font-size="76" font-weight="800" fill="#111827">mdpresent</text>
  <text x="100" y="226" font-family="Aptos, Arial" font-size="30" fill="#64748B">Markdown to coherent editable decks</text>
  <rect x="96" y="258" width="170" height="10" rx="5" fill="#14B8A6"/>
  <g fill="#FFFDF8" stroke="#D8D1C6" stroke-width="3"><rect x="130" y="390" width="250" height="130" rx="18"/><rect x="460" y="390" width="250" height="130" rx="18"/><rect x="790" y="390" width="250" height="130" rx="18"/><rect x="1120" y="390" width="250" height="130" rx="18"/></g>
  <g font-family="Aptos, Arial" font-weight="800" font-size="26" fill="#111827"><text x="188" y="458">Markdown</text><text x="518" y="458">IR</text><text x="848" y="458">Layout</text><text x="1178" y="458">Render</text></g>
  <g stroke="#111827" stroke-width="7" stroke-linecap="round"><path d="M390 455 H445"/><path d="M720 455 H775"/><path d="M1050 455 H1105"/></g>
  <g fill="#111827"><path d="M445 455 l-18 -12 v24z"/><path d="M775 455 l-18 -12 v24z"/><path d="M1105 455 l-18 -12 v24z"/></g>
  <rect x="130" y="640" width="1110" height="116" rx="18" fill="#FFFDF8" stroke="#D8D1C6" stroke-width="3"/>
  <rect x="1240" y="640" width="210" height="116" rx="18" fill="#FFE9EF" stroke="#BE123C" stroke-width="3"/>

</svg>
