<svg xmlns="http://www.w3.org/2000/svg" width="2600" height="1414" viewBox="0 0 1400 760" role="img" aria-labelledby="title desc">
  <title id="title">MDPR Deterministic Presentation Pipeline</title>
  <desc id="desc">A PowerPoint-generated teaser showing deterministic MDPR structure, optional reasoning hints, design rules, and editable outputs.</desc>
  <rect width="1400" height="760" fill="#F7F2EA"/>
  <path d="M72 126 H1328 M72 618 H1328 M362 126 V618 M652 126 V618 M1126 126 V618" fill="none" stroke="#E7D8C7" stroke-width="1.2" opacity="0.7"/>
  <text x="68" y="68" font-family="Aptos, Inter, Arial" font-size="38" font-weight="800" fill="#111827">MDPR Deterministic Presentation Pipeline</text>
  <text x="68" y="108" font-family="Aptos, Inter, Arial" font-size="17" fill="#64748B">Markdown becomes coherent PPTX/HTML/PDF through MDPR rules; mdpr-skill may add compact hints, but MDPR owns final layout.</text>
  <g fill="#EEF4EF" stroke="#C8D8C8" stroke-width="1.5"><rect x="72" y="150" width="280" height="420" rx="18"/></g>
  <g fill="#FFF3DE" stroke="#E4BF75" stroke-width="1.5"><rect x="382" y="150" width="260" height="420" rx="18"/></g>
  <g fill="#EAF7F3" stroke="#7CC7BA" stroke-width="1.5"><rect x="672" y="150" width="430" height="420" rx="18"/></g>
  <g fill="#F1F0FA" stroke="#B8B5E6" stroke-width="1.5"><rect x="1140" y="150" width="210" height="420" rx="18"/></g>
  <g font-family="Aptos, Inter, Arial" font-size="20" font-weight="800"><text x="96" y="188" fill="#334155">1. Content Contract</text><text x="406" y="188" fill="#8B4E16">2. Agent Hints</text><text x="696" y="188" fill="#115E59">3. MDPR Design Rules</text><text x="1164" y="188" fill="#4338CA">4. Outputs</text></g>
  <g font-family="Aptos, Inter, Arial" font-size="16" fill="#64748B"><text x="96" y="226">semantic structure only</text><text x="406" y="226">small optional tags</text><text x="696" y="226">final visual choices</text><text x="1164" y="226">PPTX, HTML, PDF</text></g>
  <g fill="#FFFDF8" stroke="#DACFC0" stroke-width="1.5"><rect x="102" y="308" width="220" height="105" rx="16"/><rect x="102" y="448" width="220" height="105" rx="16"/><rect x="412" y="244" width="205" height="104" rx="16"/><rect x="412" y="410" width="205" height="124" rx="16"/><rect x="1162" y="250" width="166" height="96" rx="16"/><rect x="1162" y="395" width="166" height="96" rx="16"/></g>
  <g fill="#F8FAFC" stroke="#BBF7D0" stroke-width="1.5"><rect x="700" y="360" width="112" height="88" rx="16"/><rect x="833" y="360" width="112" height="88" rx="16"/><rect x="966" y="360" width="112" height="88" rx="16"/><rect x="700" y="478" width="112" height="88" rx="16"/><rect x="833" y="478" width="112" height="88" rx="16"/><rect x="966" y="478" width="112" height="88" rx="16"/></g>
  <g fill="none" stroke-linecap="round" stroke-linejoin="round"><path d="M212 279 V306 M212 413 V446 M322 500 H362 V296 H410" stroke="#475569" stroke-width="3.4"/><path d="M617 296 H712 M1059 296 H1138" stroke="#111827" stroke-width="4.6"/><path d="M514 348 V408 M617 472 H660 V404 H698" stroke="#A85520" stroke-width="2.8" stroke-dasharray="10 8"/><path d="M812 404 H831 M945 404 H964 M812 522 H831 M945 522 H964 M756 448 V476 M889 448 V476 M1022 448 V476" stroke="#0F766E" stroke-width="2.6"/><path d="M1245 346 V393" stroke="#475569" stroke-width="3.6"/><path d="M1245 491 V510" stroke="#BE123C" stroke-width="2.8"/></g>
  <rect x="715" y="252" width="344" height="78" rx="18" fill="#DCFCE7" stroke="#7CC7BA" stroke-width="1.5"/>
  <text x="745" y="281" font-family="Aptos, Inter, Arial" font-size="17" font-weight="800" fill="#14532D">Rule Engine Boundary</text>
  <text x="745" y="311" font-family="Aptos, Inter, Arial" font-size="13" fill="#166534">recipes, colors, z-order</text>
  <rect x="1162" y="512" width="166" height="44" rx="14" fill="#FFF1F2" stroke="#BE123C" stroke-width="1.5"/>
  <rect x="72" y="610" width="1256" height="66" rx="18" fill="#FFFDF8" stroke="#DACFC0" stroke-width="1.2"/>
  <g font-family="Aptos, Inter, Arial" font-size="15" font-weight="800" fill="#111827"><text x="160" y="346">Markdown</text><text x="160" y="486">MDPR Splitter</text><text x="470" y="282">Slide Element IR</text><text x="470" y="448">Hint Packet</text><text x="1220" y="286">Styled IR</text><text x="1220" y="431">Renderers</text></g>
  <g font-family="Aptos, Inter, Arial" font-size="12.5" fill="#526071"><text x="138" y="376">headings + tables</text><text x="138" y="397">charts + images</text><text x="138" y="516">Pandoc/simple AST</text><text x="138" y="537">slide/object split</text><text x="448" y="312">semantic blocks</text><text x="448" y="331">whole graph</text><text x="448" y="478">intent + importance</text><text x="1198" y="316">coherent deck</text><text x="1198" y="461">PPTX output</text></g>
  <g font-family="Aptos, Inter, Arial" font-size="13" font-weight="800" fill="#111827"><text x="737" y="398">Features</text><text x="870" y="398">Recipes</text><text x="1003" y="398">Theme</text><text x="737" y="516">Compose</text><text x="870" y="516">Objects</text><text x="1003" y="516">Decorate</text></g>
  <g font-family="Aptos, Inter, Arial" font-size="12" fill="#526071"><text x="724" y="426">density</text><text x="724" y="444">size risk</text><text x="857" y="426">profile</text><text x="857" y="444">variant</text><text x="990" y="426">harmony</text><text x="990" y="444">PPT accents</text><text x="724" y="544">regions</text><text x="724" y="562">overflow</text><text x="857" y="544">charts</text><text x="857" y="562">icons</text><text x="990" y="544">type</text><text x="990" y="562">effects</text></g>
  <text x="1212" y="538" font-family="Aptos, Inter, Arial" font-size="14" font-weight="800" fill="#881337">Visual QA</text>
  <text x="104" y="648" font-family="Aptos, Inter, Arial" font-size="17" font-weight="800" fill="#111827">Coherence checks</text>
  <text x="292" y="648" font-family="Aptos, Inter, Arial" font-size="14" fill="#526071">one graph per slide; bounded text; centered icons; role-consistent straight or elbow connectors</text>
</svg>
