<svg xmlns="http://www.w3.org/2000/svg" width="2600" height="1414" viewBox="0 0 1400 760" role="img" aria-labelledby="title desc">
  <title id="title">MDPR Deterministic Presentation Pipeline</title>
  <desc id="desc">A polished overview image generated from pipeline.md, showing MDPR content splitting, optional LLM reasoning hints, deterministic design rules, and editable outputs.</desc>
  <rect id="z00_background" width="1400" height="760" fill="#F7F2EA"/>
<path id="z00_editorial_grid" d="M72 126 H1328 M72 621 H1328 M380 126 V621 M690 126 V621 M1104 126 V621" fill="none" stroke="#E7D8C7" stroke-width="1" opacity="0.55"/>
<path id="z00_flow_trace" d="M102 628 C280 602 400 622 553 604 S835 604 966 632 1190 655 1300 618" fill="none" stroke="#E7D8C7" stroke-width="2.4" opacity="0.48"/>
<text id="header_title" x="68.0" y="66.0" fill="#111827" font-family="Inter, Segoe UI, Arial, sans-serif" font-size="38" font-weight="700" dominant-baseline="middle">MDPR Deterministic Presentation Pipeline</text>
<text id="header_subtitle" x="68.0" y="106.0" fill="#64748B" font-family="Inter, Segoe UI, Arial, sans-serif" font-size="17" font-weight="400" dominant-baseline="middle">Markdown becomes coherent PPTX/HTML/PDF through MDPR rules; mdpr-skill can add compact reasoning hints but never owns final design.</text>
<rect id="zone_content_panel_shadow" x="93.0" y="156.0" width="280.0" height="430.0" rx="42.0" fill="#0F172A" opacity="0.12"/>
<rect id="zone_content_panel" x="90.0" y="150.0" width="280.0" height="430.0" rx="42.0" fill="#EEF4EF" stroke="#C8D8C8" stroke-width="1.5"/>
<text id="zone_content_title" x="112.0" y="192.0" fill="#334155" font-family="Inter, Segoe UI, Arial, sans-serif" font-size="20" font-weight="700" dominant-baseline="middle">1. Content Contract</text>
<text id="zone_content_subtitle" x="112.0" y="228.0" fill="#64748B" font-family="Inter, Segoe UI, Arial, sans-serif" font-size="17" font-weight="400" dominant-baseline="middle">semantic structure only</text>
<rect id="zone_reasoning_panel_shadow" x="398.0" y="156.0" width="280.0" height="430.0" rx="42.0" fill="#0F172A" opacity="0.12"/>
<rect id="zone_reasoning_panel" x="395.0" y="150.0" width="280.0" height="430.0" rx="42.0" fill="#FFF3DE" stroke="#E4BF75" stroke-width="1.5"/>
<text id="zone_reasoning_title" x="417.0" y="192.0" fill="#8B4E16" font-family="Inter, Segoe UI, Arial, sans-serif" font-size="20" font-weight="700" dominant-baseline="middle">2. Agent Hints</text>
<text id="zone_reasoning_subtitle" x="417.0" y="228.0" fill="#64748B" font-family="Inter, Segoe UI, Arial, sans-serif" font-size="17" font-weight="400" dominant-baseline="middle">small optional tags</text>
<rect id="zone_rules_panel_shadow" x="703.0" y="156.0" width="395.0" height="430.0" rx="42.0" fill="#0F172A" opacity="0.12"/>
<rect id="zone_rules_panel" x="700.0" y="150.0" width="395.0" height="430.0" rx="42.0" fill="#EAF7F3" stroke="#7CC7BA" stroke-width="1.5"/>
<text id="zone_rules_title" x="722.0" y="192.0" fill="#115E59" font-family="Inter, Segoe UI, Arial, sans-serif" font-size="20" font-weight="700" dominant-baseline="middle">3. MDPR Design Rules</text>
<text id="zone_rules_subtitle" x="722.0" y="228.0" fill="#64748B" font-family="Inter, Segoe UI, Arial, sans-serif" font-size="17" font-weight="400" dominant-baseline="middle">final visual choices</text>
<rect id="zone_outputs_panel_shadow" x="1123.0" y="156.0" width="250.0" height="430.0" rx="42.0" fill="#0F172A" opacity="0.12"/>
<rect id="zone_outputs_panel" x="1120.0" y="150.0" width="250.0" height="430.0" rx="42.0" fill="#F1F0FA" stroke="#B8B5E6" stroke-width="1.5"/>
<text id="zone_outputs_title" x="1142.0" y="192.0" fill="#4338CA" font-family="Inter, Segoe UI, Arial, sans-serif" font-size="20" font-weight="700" dominant-baseline="middle">4. Outputs</text>
<text id="zone_outputs_subtitle" x="1142.0" y="228.0" fill="#64748B" font-family="Inter, Segoe UI, Arial, sans-serif" font-size="17" font-weight="400" dominant-baseline="middle">PPTX, HTML, PDF</text>
  <g id="arrow_layer">
    <path id="main_start_markdown" d="M230.0,280.0 L230.0,297.0" fill="none" stroke="#111827" stroke-width="5.2" stroke-linecap="round" stroke-linejoin="round"/>
    <polygon id="main_start_markdown_head" points="230.0,306.0 225.9,295.1 234.1,295.1" fill="#111827"/>
    <path id="main_markdown_splitter" d="M230.0,411.0 L230.0,435.3" fill="none" stroke="#475569" stroke-width="4.0" stroke-linecap="round" stroke-linejoin="round"/>
    <polygon id="main_markdown_splitter_head" points="230.0,448.0 224.2,432.5 235.8,432.5" fill="#475569"/>
    <path id="main_splitter_ir" d="M345.0,504.0 L418.2,304.5" fill="none" stroke="#475569" stroke-width="4.0" stroke-linecap="round" stroke-linejoin="round"/>
    <polygon id="main_splitter_ir_head" points="425.0,286.0 425.2,311.6 408.3,305.4" fill="#475569"/>
    <path id="hint_ir_reasoning" d="M535.0,342.0 L535.0,375.2" fill="none" stroke="#A85520" stroke-width="3.0" stroke-linecap="round" stroke-linejoin="round" stroke-dasharray="14 12"/>
    <polygon id="hint_ir_reasoning_head" points="535.0,390.0 528.2,372.0 541.8,372.0" fill="#A85520"/>
    <path id="main_ir_rules" d="M645.0,286.0 L704.4,286.0" fill="none" stroke="#111827" stroke-width="5.2" stroke-linecap="round" stroke-linejoin="round"/>
    <polygon id="main_ir_rules_head" points="730.0,286.0 698.8,297.7 698.8,274.3" fill="#111827"/>
    <path id="hint_reasoning_rules" d="M645.0,475.0 L704.2,394.9" fill="none" stroke="#A85520" stroke-width="3.0" stroke-linecap="round" stroke-linejoin="round" stroke-dasharray="14 12"/>
    <polygon id="hint_reasoning_rules_head" points="713.0,383.0 707.7,401.5 696.9,393.5" fill="#A85520"/>
    <path id="rule_features_recipes" d="M829.0,388.0 L837.5,388.0" fill="none" stroke="#0F766E" stroke-width="2.8" stroke-linecap="round" stroke-linejoin="round"/>
    <path id="rule_recipes_theme" d="M958.0,388.0 L966.5,388.0" fill="none" stroke="#0F766E" stroke-width="2.8" stroke-linecap="round" stroke-linejoin="round"/>
    <path id="rule_features_compose" d="M771.0,438.0 L771.0,455.0" fill="none" stroke="#0F766E" stroke-width="2.8" stroke-linecap="round" stroke-linejoin="round"/>
    <polygon id="rule_features_compose_head" points="771.0,464.0 766.9,453.1 775.1,453.1" fill="#0F766E"/>
    <path id="rule_recipes_objects" d="M900.0,438.0 L900.0,455.0" fill="none" stroke="#0F766E" stroke-width="2.8" stroke-linecap="round" stroke-linejoin="round"/>
    <polygon id="rule_recipes_objects_head" points="900.0,464.0 895.9,453.1 904.1,453.1" fill="#0F766E"/>
    <path id="rule_theme_decorate" d="M1029.0,438.0 L1029.0,455.0" fill="none" stroke="#0F766E" stroke-width="2.8" stroke-linecap="round" stroke-linejoin="round"/>
    <polygon id="rule_theme_decorate_head" points="1029.0,464.0 1024.9,453.1 1033.1,453.1" fill="#0F766E"/>
    <path id="rule_compose_objects" d="M829.0,514.0 L837.5,514.0" fill="none" stroke="#0F766E" stroke-width="2.8" stroke-linecap="round" stroke-linejoin="round"/>
    <path id="rule_objects_decorate" d="M958.0,514.0 L966.5,514.0" fill="none" stroke="#0F766E" stroke-width="2.8" stroke-linecap="round" stroke-linejoin="round"/>
    <path id="main_rules_styled_ir" d="M1075.0,286.0 L1120.9,286.0" fill="none" stroke="#111827" stroke-width="5.2" stroke-linecap="round" stroke-linejoin="round"/>
    <polygon id="main_rules_styled_ir_head" points="1145.0,286.0 1115.6,297.0 1115.6,275.0" fill="#111827"/>
    <path id="main_styled_renderers" d="M1245.0,338.5 L1245.0,372.3" fill="none" stroke="#475569" stroke-width="4.0" stroke-linecap="round" stroke-linejoin="round"/>
    <polygon id="main_styled_renderers_head" points="1245.0,390.0 1236.9,368.4 1253.1,368.4" fill="#475569"/>
    <path id="validation_loop" d="M1245.0,495.0 L1245.0,506.1" fill="none" stroke="#BE123C" stroke-width="3.4" stroke-linecap="round" stroke-linejoin="round"/>
    <polygon id="validation_loop_head" points="1245.0,512.0 1242.3,504.9 1247.7,504.9" fill="#BE123C"/>
  </g>
<rect id="start_flag_shadow" x="193.0" y="252.0" width="80.0" height="34.0" rx="7.0" fill="#0F172A" opacity="0.12"/>
<rect id="start_flag" x="190.0" y="246.0" width="80.0" height="34.0" rx="7.0" fill="#EEF4EF" stroke="#C8D8C8" stroke-width="1.2"/>
<text id="start_flag_text" x="212.0" y="264.0" fill="#334155" font-family="Inter, Segoe UI, Arial, sans-serif" font-size="13" font-weight="700" dominant-baseline="middle">source</text>
<rect id="markdown_card_shadow" x="118.0" y="312.0" width="230.0" height="105.0" rx="22.0" fill="#0F172A" opacity="0.12"/>
<rect id="markdown_card" x="115.0" y="306.0" width="230.0" height="105.0" rx="22.0" fill="#FFFDF8" stroke="#DACFC0" stroke-width="1.5"/>
<circle id="markdown_dot" cx="144.0" cy="343.0" r="11" fill="#86A789" stroke="#B7C6D8" stroke-width="1.2"/>
<path id="markdown_icon" d="M138.7,339.3 H149.3 M138.7,343.0 H147.1 M138.7,346.7 H148.6" fill="none" stroke="#FFFFFF" stroke-width="2.0" stroke-linecap="round" stroke-linejoin="round"/>
<text id="markdown_title" x="168.0" y="343.0" fill="#111827" font-family="Inter, Segoe UI, Arial, sans-serif" font-size="16" font-weight="700" dominant-baseline="middle">Markdown</text>
<text id="markdown_line_0" x="144.0" y="376.0" fill="#526071" font-family="Inter, Segoe UI, Arial, sans-serif" font-size="14" font-weight="400" dominant-baseline="middle">headings, tables</text>
<text id="markdown_line_1" x="144.0" y="394.2" fill="#526071" font-family="Inter, Segoe UI, Arial, sans-serif" font-size="14" font-weight="400" dominant-baseline="middle">charts and images</text>
<rect id="splitter_card_shadow" x="118.0" y="454.0" width="230.0" height="112.0" rx="22.0" fill="#0F172A" opacity="0.12"/>
<rect id="splitter_card" x="115.0" y="448.0" width="230.0" height="112.0" rx="22.0" fill="#FFFDF8" stroke="#DACFC0" stroke-width="1.5"/>
<circle id="splitter_dot" cx="144.0" cy="485.0" r="11" fill="#86A789" stroke="#B7C6D8" stroke-width="1.2"/>
<path id="splitter_icon" d="M139.4,485.0 H144.9 M144.9,485.0 L148.6,481.0 M144.9,485.0 L148.6,489.0" fill="none" stroke="#FFFFFF" stroke-width="2.0" stroke-linecap="round" stroke-linejoin="round"/>
<text id="splitter_title" x="168.0" y="485.0" fill="#111827" font-family="Inter, Segoe UI, Arial, sans-serif" font-size="16" font-weight="700" dominant-baseline="middle">MDPR Splitter</text>
<text id="splitter_line_0" x="144.0" y="518.0" fill="#526071" font-family="Inter, Segoe UI, Arial, sans-serif" font-size="14" font-weight="400" dominant-baseline="middle">Pandoc or simple AST</text>
<text id="splitter_line_1" x="144.0" y="543.2" fill="#526071" font-family="Inter, Segoe UI, Arial, sans-serif" font-size="14" font-weight="400" dominant-baseline="middle">slide/object split</text>
<rect id="ir_core_card_shadow" x="428.0" y="236.0" width="220.0" height="112.0" rx="22.0" fill="#0F172A" opacity="0.12"/>
<rect id="ir_core_card" x="425.0" y="230.0" width="220.0" height="112.0" rx="22.0" fill="#FFFFFF" stroke="#E4BF75" stroke-width="1.5"/>
<circle id="ir_core_dot" cx="454.0" cy="267.0" r="11" fill="#E9B44C" stroke="#B7C6D8" stroke-width="1.2"/>
<path id="ir_core_icon" d="M449.2,261.9 H458.8 V272.1 H449.2 Z M451.6,265.7 H456.4 M451.6,269.0 H455.3" fill="none" stroke="#FFFFFF" stroke-width="2.0" stroke-linecap="round" stroke-linejoin="round"/>
<text id="ir_core_title" x="478.0" y="267.0" fill="#111827" font-family="Inter, Segoe UI, Arial, sans-serif" font-size="16" font-weight="700" dominant-baseline="middle">Slide Element IR</text>
<text id="ir_core_line_0" x="454.0" y="300.0" fill="#526071" font-family="Inter, Segoe UI, Arial, sans-serif" font-size="14" font-weight="400" dominant-baseline="middle">semantic blocks</text>
<text id="ir_core_line_1" x="454.0" y="325.2" fill="#526071" font-family="Inter, Segoe UI, Arial, sans-serif" font-size="14" font-weight="400" dominant-baseline="middle">graph kept whole</text>
<rect id="reasoning_card_shadow" x="428.0" y="396.0" width="220.0" height="170.0" rx="22.0" fill="#0F172A" opacity="0.12"/>
<rect id="reasoning_card" x="425.0" y="390.0" width="220.0" height="170.0" rx="22.0" fill="#FFFFFF" stroke="#E4BF75" stroke-width="1.5"/>
<circle id="reasoning_dot" cx="454.0" cy="427.0" r="11" fill="#E9B44C" stroke="#B7C6D8" stroke-width="1.2"/>
<path id="reasoning_icon" d="M454.0,421.3 L455.8,425.9 L460.4,427.0 L455.8,428.3 L454.0,432.7 L452.2,428.3 L447.6,427.0 L452.2,425.9 Z" fill="#FFFFFF"/>
<text id="reasoning_title" x="478.0" y="427.0" fill="#111827" font-family="Inter, Segoe UI, Arial, sans-serif" font-size="16" font-weight="700" dominant-baseline="middle">Hint Packet</text>
<text id="reasoning_line_0" x="454.0" y="460.0" fill="#526071" font-family="Inter, Segoe UI, Arial, sans-serif" font-size="14" font-weight="400" dominant-baseline="middle">intent + importance</text>
<rect id="reasoning_guard_shadow" x="453.0" y="492.0" width="170.0" height="34.0" rx="7.0" fill="#0F172A" opacity="0.12"/>
<rect id="reasoning_guard" x="450.0" y="486.0" width="170.0" height="34.0" rx="7.0" fill="#FFF7E6" stroke="#E9B44C" stroke-width="1.2"/>
<text id="reasoning_guard_text" x="472.0" y="504.0" fill="#7C3D12" font-family="Inter, Segoe UI, Arial, sans-serif" font-size="13" font-weight="700" dominant-baseline="middle">hints only</text>
<text id="reasoning_limit" x="450.0" y="530.0" fill="#64748B" font-family="Inter, Segoe UI, Arial, sans-serif" font-size="13" font-weight="700" dominant-baseline="middle">no coordinates or styles</text>
<rect id="rule_engine_card_shadow" x="733.0" y="252.0" width="345.0" height="80.0" rx="22.0" fill="#0F172A" opacity="0.12"/>
<rect id="rule_engine_card" x="730.0" y="246.0" width="345.0" height="80.0" rx="22.0" fill="#DCFCE7" stroke="#7CC7BA" stroke-width="1.5"/>
<text id="rule_engine_title" x="760.0" y="273.0" fill="#14532D" font-family="Inter, Segoe UI, Arial, sans-serif" font-size="17" font-weight="700" dominant-baseline="middle">Rule Engine Boundary</text>
<text id="rule_engine_body" x="760.0" y="302.0" fill="#166534" font-family="Inter, Segoe UI, Arial, sans-serif" font-size="14" font-weight="400" dominant-baseline="middle">recipes, colors, z-order</text>
<rect id="features_card_shadow" x="716.0" y="344.0" width="116.0" height="100.0" rx="22.0" fill="#0F172A" opacity="0.12"/>
<rect id="features_card" x="713.0" y="338.0" width="116.0" height="100.0" rx="22.0" fill="#F8FAFC" stroke="#BBF7D0" stroke-width="1.5"/>
<circle id="features_dot" cx="736.0" cy="369.0" r="9" fill="#14B8A6" stroke="#B7C6D8" stroke-width="1.2"/>
<path id="features_icon" d="M731.5,371.9 H740.5" fill="none" stroke="#FFFFFF" stroke-width="1.6" stroke-linecap="round" stroke-linejoin="round"/>
<rect id="features_bar_0" x="732.6" y="368.2" width="1.6" height="3.1" rx="1.0" fill="#FFFFFF"/>
<rect id="features_bar_1" x="735.8" y="365.8" width="1.6" height="5.6" rx="1.0" fill="#FFFFFF"/>
<rect id="features_bar_2" x="739.1" y="367.0" width="1.6" height="4.3" rx="1.0" fill="#FFFFFF"/>
<text id="features_title" x="755.0" y="369.0" fill="#111827" font-family="Inter, Segoe UI, Arial, sans-serif" font-size="13" font-weight="700" dominant-baseline="middle">Features</text>
<text id="features_line_0" x="730.0" y="397.0" fill="#526071" font-family="Inter, Segoe UI, Arial, sans-serif" font-size="13" font-weight="400" dominant-baseline="middle">density</text>
<text id="features_line_1" x="730.0" y="421.9" fill="#526071" font-family="Inter, Segoe UI, Arial, sans-serif" font-size="13" font-weight="400" dominant-baseline="middle">size risk</text>
<rect id="recipes_card_shadow" x="845.0" y="344.0" width="116.0" height="100.0" rx="22.0" fill="#0F172A" opacity="0.12"/>
<rect id="recipes_card" x="842.0" y="338.0" width="116.0" height="100.0" rx="22.0" fill="#F8FAFC" stroke="#BBF7D0" stroke-width="1.5"/>
<circle id="recipes_dot" cx="865.0" cy="369.0" r="9" fill="#14B8A6" stroke="#B7C6D8" stroke-width="1.2"/>
<rect id="recipes_layer_0" x="861.2" y="365.8" width="7.6" height="1.4" rx="1.2" fill="#FFFFFF"/>
<rect id="recipes_layer_1" x="861.2" y="368.8" width="7.6" height="1.4" rx="1.2" fill="#FFFFFF"/>
<rect id="recipes_layer_2" x="861.2" y="371.9" width="7.6" height="1.4" rx="1.2" fill="#FFFFFF"/>
<text id="recipes_title" x="884.0" y="369.0" fill="#111827" font-family="Inter, Segoe UI, Arial, sans-serif" font-size="13" font-weight="700" dominant-baseline="middle">Recipes</text>
<text id="recipes_line_0" x="859.0" y="397.0" fill="#526071" font-family="Inter, Segoe UI, Arial, sans-serif" font-size="13" font-weight="400" dominant-baseline="middle">profile</text>
<text id="recipes_line_1" x="859.0" y="421.9" fill="#526071" font-family="Inter, Segoe UI, Arial, sans-serif" font-size="13" font-weight="400" dominant-baseline="middle">variant</text>
<rect id="theme_card_shadow" x="974.0" y="344.0" width="116.0" height="100.0" rx="22.0" fill="#0F172A" opacity="0.12"/>
<rect id="theme_card" x="971.0" y="338.0" width="116.0" height="100.0" rx="22.0" fill="#F8FAFC" stroke="#BBF7D0" stroke-width="1.5"/>
<circle id="theme_dot" cx="994.0" cy="369.0" r="9" fill="#14B8A6" stroke="#B7C6D8" stroke-width="1.2"/>
<ellipse id="theme_palette" cx="994.0" cy="369.0" rx="4.7" ry="3.8" fill="none" stroke="#FFFFFF" stroke-width="1.6" stroke-linecap="round" stroke-linejoin="round"/>
<circle id="theme_dot_0" cx="992.2" cy="367.9" r="0.8" fill="#FFFFFF"/>
<circle id="theme_dot_1" cx="994.9" cy="367.0" r="0.8" fill="#FFFFFF"/>
<circle id="theme_dot_2" cx="994.0" cy="370.4" r="0.8" fill="#FFFFFF"/>
<text id="theme_title" x="1013.0" y="369.0" fill="#111827" font-family="Inter, Segoe UI, Arial, sans-serif" font-size="13" font-weight="700" dominant-baseline="middle">Theme</text>
<text id="theme_line_0" x="988.0" y="397.0" fill="#526071" font-family="Inter, Segoe UI, Arial, sans-serif" font-size="13" font-weight="400" dominant-baseline="middle">harmony</text>
<text id="theme_line_1" x="988.0" y="421.9" fill="#526071" font-family="Inter, Segoe UI, Arial, sans-serif" font-size="13" font-weight="400" dominant-baseline="middle">PPT accents</text>
<rect id="compose_card_shadow" x="716.0" y="470.0" width="116.0" height="100.0" rx="22.0" fill="#0F172A" opacity="0.12"/>
<rect id="compose_card" x="713.0" y="464.0" width="116.0" height="100.0" rx="22.0" fill="#F8FAFC" stroke="#BBF7D0" stroke-width="1.5"/>
<circle id="compose_dot" cx="736.0" cy="495.0" r="9" fill="#14B8A6" stroke="#B7C6D8" stroke-width="1.2"/>
<path id="compose_icon" d="M731.7,490.7 H740.3 V499.3 H731.7 Z M736.0,490.7 V499.3 M731.7,495.0 H740.3" fill="none" stroke="#FFFFFF" stroke-width="1.6" stroke-linecap="round" stroke-linejoin="round"/>
<text id="compose_title" x="755.0" y="495.0" fill="#111827" font-family="Inter, Segoe UI, Arial, sans-serif" font-size="13" font-weight="700" dominant-baseline="middle">Compose</text>
<text id="compose_line_0" x="730.0" y="523.0" fill="#526071" font-family="Inter, Segoe UI, Arial, sans-serif" font-size="13" font-weight="400" dominant-baseline="middle">regions</text>
<text id="compose_line_1" x="730.0" y="547.9" fill="#526071" font-family="Inter, Segoe UI, Arial, sans-serif" font-size="13" font-weight="400" dominant-baseline="middle">overflow</text>
<rect id="objects_card_shadow" x="845.0" y="470.0" width="116.0" height="100.0" rx="22.0" fill="#0F172A" opacity="0.12"/>
<rect id="objects_card" x="842.0" y="464.0" width="116.0" height="100.0" rx="22.0" fill="#F8FAFC" stroke="#BBF7D0" stroke-width="1.5"/>
<circle id="objects_dot" cx="865.0" cy="495.0" r="9" fill="#14B8A6" stroke="#B7C6D8" stroke-width="1.2"/>
<circle id="objects_ring" cx="865.0" cy="495.0" r="3.8" fill="none" stroke="#FFFFFF" stroke-width="1.6" stroke-linecap="round" stroke-linejoin="round"/>
<path id="objects_slice" d="M865.0,495.0 L868.8,495.0 A3.8,3.8 0 0 0 865.0,491.2 Z" fill="#FFFFFF"/>
<text id="objects_title" x="884.0" y="495.0" fill="#111827" font-family="Inter, Segoe UI, Arial, sans-serif" font-size="13" font-weight="700" dominant-baseline="middle">Objects</text>
<text id="objects_line_0" x="859.0" y="523.0" fill="#526071" font-family="Inter, Segoe UI, Arial, sans-serif" font-size="13" font-weight="400" dominant-baseline="middle">charts</text>
<text id="objects_line_1" x="859.0" y="547.9" fill="#526071" font-family="Inter, Segoe UI, Arial, sans-serif" font-size="13" font-weight="400" dominant-baseline="middle">icons</text>
<rect id="decorate_card_shadow" x="974.0" y="470.0" width="116.0" height="100.0" rx="22.0" fill="#0F172A" opacity="0.12"/>
<rect id="decorate_card" x="971.0" y="464.0" width="116.0" height="100.0" rx="22.0" fill="#F8FAFC" stroke="#BBF7D0" stroke-width="1.5"/>
<circle id="decorate_dot" cx="994.0" cy="495.0" r="9" fill="#14B8A6" stroke="#B7C6D8" stroke-width="1.2"/>
<path id="decorate_icon" d="M989.9,498.4 C992.4,495.9 995.6,495.9 998.1,491.8 M996.0,493.2 L998.5,490.7" fill="none" stroke="#FFFFFF" stroke-width="1.6" stroke-linecap="round" stroke-linejoin="round"/>
<text id="decorate_title" x="1013.0" y="495.0" fill="#111827" font-family="Inter, Segoe UI, Arial, sans-serif" font-size="13" font-weight="700" dominant-baseline="middle">Decorate</text>
<text id="decorate_line_0" x="988.0" y="523.0" fill="#526071" font-family="Inter, Segoe UI, Arial, sans-serif" font-size="13" font-weight="400" dominant-baseline="middle">type</text>
<text id="decorate_line_1" x="988.0" y="547.9" fill="#526071" font-family="Inter, Segoe UI, Arial, sans-serif" font-size="13" font-weight="400" dominant-baseline="middle">effects</text>
<rect id="styled_ir_card_shadow" x="1148.0" y="239.5" width="200.0" height="105.0" rx="22.0" fill="#0F172A" opacity="0.12"/>
<rect id="styled_ir_card" x="1145.0" y="233.5" width="200.0" height="105.0" rx="22.0" fill="#FFFDF8" stroke="#DACFC0" stroke-width="1.5"/>
<circle id="styled_ir_dot" cx="1174.0" cy="270.5" r="11" fill="#818CF8" stroke="#B7C6D8" stroke-width="1.2"/>
<path id="styled_ir_icon" d="M1169.2,265.4 H1178.8 V275.6 H1169.2 Z M1171.6,269.2 H1176.4 M1171.6,272.5 H1175.3" fill="none" stroke="#FFFFFF" stroke-width="2.0" stroke-linecap="round" stroke-linejoin="round"/>
<text id="styled_ir_title" x="1198.0" y="270.5" fill="#111827" font-family="Inter, Segoe UI, Arial, sans-serif" font-size="16" font-weight="700" dominant-baseline="middle">Styled Deck IR</text>
<text id="styled_ir_line_0" x="1174.0" y="303.5" fill="#526071" font-family="Inter, Segoe UI, Arial, sans-serif" font-size="14" font-weight="400" dominant-baseline="middle">renderer-neutral</text>
<text id="styled_ir_line_1" x="1174.0" y="321.8" fill="#526071" font-family="Inter, Segoe UI, Arial, sans-serif" font-size="14" font-weight="400" dominant-baseline="middle">coherent contract</text>
<rect id="renderers_card_shadow" x="1148.0" y="396.0" width="200.0" height="105.0" rx="22.0" fill="#0F172A" opacity="0.12"/>
<rect id="renderers_card" x="1145.0" y="390.0" width="200.0" height="105.0" rx="22.0" fill="#FFFDF8" stroke="#DACFC0" stroke-width="1.5"/>
<circle id="renderers_dot" cx="1174.0" cy="427.0" r="11" fill="#818CF8" stroke="#B7C6D8" stroke-width="1.2"/>
<path id="renderers_icon" d="M1168.5,423.3 H1179.5 V429.9 H1168.5 Z M1172.0,432.3 H1176.0" fill="none" stroke="#FFFFFF" stroke-width="2.0" stroke-linecap="round" stroke-linejoin="round"/>
<text id="renderers_title" x="1198.0" y="427.0" fill="#111827" font-family="Inter, Segoe UI, Arial, sans-serif" font-size="16" font-weight="700" dominant-baseline="middle">Renderers</text>
<text id="renderers_line_0" x="1174.0" y="460.0" fill="#526071" font-family="Inter, Segoe UI, Arial, sans-serif" font-size="14" font-weight="400" dominant-baseline="middle">editable PPTX</text>
<text id="renderers_line_1" x="1174.0" y="478.2" fill="#526071" font-family="Inter, Segoe UI, Arial, sans-serif" font-size="14" font-weight="400" dominant-baseline="middle">HTML / PDF</text>
<rect id="visual_check_shadow" x="1143.0" y="518.0" width="210.0" height="60.0" rx="14" fill="#0F172A" opacity="0.16"/>
<path id="visual_check" d="M1156.0,512.0 H1334.0 Q1350.0,512.0 1350.0,528.0 V556.0 Q1350.0,572.0 1334.0,572.0 H1156.0 Q1140.0,572.0 1140.0,556.0 V528.0 Q1140.0,512.0 1156.0,512.0 Z" fill="#FFF1F2" stroke="#BE123C" stroke-width="1.5"/>
<rect id="visual_check_stripe" x="1140.0" y="522.0" width="6.5" height="40.0" rx="3.2" fill="#BE123C"/>
<circle id="visual_check_seal" cx="1168.0" cy="542.0" r="17" fill="#BE123C"/>
<path id="visual_check_check" d="M1161.0,542.0 L1166.0,547.0 L1176.0,535.0" fill="none" stroke="#FFFFFF" stroke-width="3.2" stroke-linecap="round" stroke-linejoin="round"/>
<path id="visual_check_spark" d="M1307.0,531.0 l7,-7 l7,7 M1292.0,556.0 h34" fill="none" stroke="#F59E0B" stroke-width="2.2" stroke-linecap="round" opacity="0.9"/>
<text id="visual_check_label" x="1196.0" y="535.0" fill="#881337" font-family="Inter, Segoe UI, Arial, sans-serif" font-size="13" font-weight="800" dominant-baseline="middle">PROOF POINT</text>
<text id="visual_check_text" x="1196.0" y="555.0" fill="#881337" font-family="Inter, Segoe UI, Arial, sans-serif" font-size="14" font-weight="800" dominant-baseline="middle">visual validation</text>
<rect id="coherence_band_shadow" x="93.0" y="631.0" width="1220.0" height="72.0" rx="18.0" fill="#0F172A" opacity="0.12"/>
<rect id="coherence_band" x="90.0" y="625.0" width="1220.0" height="72.0" rx="18.0" fill="#FFFDF8" stroke="#DACFC0" stroke-width="1.4"/>
<text id="coherence_title" x="122.0" y="662.0" fill="#111827" font-family="Inter, Segoe UI, Arial, sans-serif" font-size="17" font-weight="700" dominant-baseline="middle">Coherence checks</text>
<text id="coherence_body" x="325.0" y="662.0" fill="#526071" font-family="Inter, Segoe UI, Arial, sans-serif" font-size="14" font-weight="400" dominant-baseline="middle">One graph per slide; text is bounded; icons are centered; arrows keep role-level style.</text>
</svg>
